# xmcd CD database file
# Copyright (C) 1997 Ti Kan
# 
# Track frame offsets:
#     150
#     13850
#     28088
#     41663
#     55338
#     68463
#     81850
#     96050
#     110225
#     123975
#     137463
#     150688
#     165400
#     178938
#     192900
#     205250
#     218375
#     230388
# 
# Disc length: 3252 seconds
# 
# Revision: 1
# Processed by: cddbd v1.4b41PL1 Copyright (c) Steve Scherf et al.
# Submitted via: DiscPlay 4.0.3
# 
DISCID=f00cb212
DTITLE=Lil Johnson - Lil Johnson (1936-1937)
DYEAR=1900
DGENRE=
TTITLE0=That Bonus Done Gone Thru
TTITLE1=Get 'Em From The Peanut Man (Hot Nuts)
TTITLE2=Sam - The Hot Dog Man
TTITLE3=Rug Cutter's Function
TTITLE4=My Stove's In Good Condition
TTITLE5=Hottest Gal In Town
TTITLE6=Let's Get Drunk Adn Truck
TTITLE7=Black And Evil Blues
TTITLE8=You're Just A Cream Puff
TTITLE9=I'll Take You To The Cleaners (tk.1)
TTITLE10=River Hip Papa
TTITLE11=Goofer Dust Swing
TTITLE12=Take It Easy Greasy No. 2
TTITLE13=Stavin' Chain (tk. 1)
TTITLE14=Take Your Hand Off It (tk. 1)
TTITLE15=When I Can Get It
TTITLE16=Broken Hearted Blues
TTITLE17=So Long, Babe, I'm Gone
EXTD=
EXTT0=
EXTT1=
EXTT2=
EXTT3=
EXTT4=
EXTT5=
EXTT6=
EXTT7=
EXTT8=
EXTT9=
EXTT10=
EXTT11=
EXTT12=
EXTT13=
EXTT14=
EXTT15=
EXTT16=
EXTT17=
PLAYORDER=
